Coordinates
version=1
nRows=5
nColumns=63
inDegrees=yes

Units are S.I. units (second, meters, Newtons, ...)
If the header above contains a line with 'inDegrees', this indicates whether rotational values are in degrees (yes) or radians (no).

endheader
time	pelvis_tilt	pelvis_list	pelvis_rotation	pelvis_tx	pelvis_ty	pelvis_tz	hip_flexion_r	hip_adduction_r	hip_rotation_r	knee_angle_r	knee_angle_r_beta	ankle_angle_r	subtalar_angle_r	mtp_angle_r	hip_flexion_l	hip_adduction_l	hip_rotation_l	knee_angle_l	knee_angle_l_beta	ankle_angle_l	subtalar_angle_l	mtp_angle_l	L5_S1_Flex_Ext	L5_S1_Lat_Bending	L5_S1_axial_rotation	L4_L5_Flex_Ext	L4_L5_Lat_Bending	L4_L5_axial_rotation	L3_L4_Flex_Ext	L3_L4_Lat_Bending	L3_L4_axial_rotation	L2_L3_Flex_Ext	L2_L3_Lat_Bending	L2_L3_axial_rotation	L1_L2_Flex_Ext	L1_L2_Lat_Bending	L1_L2_axial_rotation	L1_T12_Flex_Ext	L1_T12_Lat_Bending	L1_T12_axial_rotation	Abs_r3	Abs_r2	Abs_r1	Abs_t1	Abs_t2	neck_flexion	neck_bending	neck_rotation	arm_flex_r	arm_add_r	arm_rot_r	elbow_flex_r	pro_sup_r	wrist_flex_r	wrist_dev_r	arm_flex_l	arm_add_l	arm_rot_l	elbow_flex_l	pro_sup_l	wrist_flex_l	wrist_dev_l
      7.50000000	    -44.61521542	     -5.54192184	     -1.22751911	     -0.18725083	      1.10244490	     -0.01153446	     93.76451328	     -3.12765329	     -6.28429939	     90.02951468	      1.57131146	      9.20244064	     -1.45256859	      0.00000000	    102.71841538	     -2.96441450	     10.36247584	     65.85057297	      1.14930931	     15.35323376	     -6.39149496	      0.00000000	     -0.08152644	      0.50788034	      0.72750119	     -0.15140274	      0.67548085	      0.77297001	     -0.13393978	      1.23486026	      0.77297001	     -0.09317656	      1.23486026	      0.63656354	     -0.07570545	      1.03566959	      0.59109472	     -0.04658421	      0.78670664	      0.54562589	     -0.58233517	      5.74524397	      4.04614336	      0.00000000	      0.00000000	     -0.00000000	      0.00000000	      0.00000000	     58.71426412	    -15.13283476	     25.47613302	     46.95804625	     29.02092813	      0.00000000	      5.00000014	     64.79846669	     -5.49445226	     30.68622010	     33.87313907	     48.93255358	      0.00000000	      5.00000014
      7.50800000	    -44.63210775	     -5.86597830	     -0.99810095	     -0.18765088	      1.10207174	     -0.01211014	     95.47307355	     -3.63786548	     -6.37665874	     92.91115966	      1.62160565	     10.36960044	     -1.16502942	      0.00000000	    100.73141188	     -3.05554092	     10.29391324	     62.75308505	      1.09524795	     13.95205590	     -6.78571127	      0.00000000	     -0.08026976	      0.56290905	      0.70154019	     -0.14906896	      0.74866903	      0.74538646	     -0.13187518	      1.36865706	      0.74538646	     -0.09174030	      1.36865706	      0.61384767	     -0.07453849	      1.14788413	      0.57000141	     -0.04586614	      0.87194612	      0.52615515	     -0.57335884	      6.36773974	      3.90175609	      0.00000000	      0.00000000	     -0.00000000	      0.00000000	      0.00000000	     58.95868975	    -15.48151135	     26.14385619	     47.24082997	     29.11724519	      0.00000000	      5.00000014	     64.90625283	     -5.27014588	     30.48578251	     33.44079164	     48.88840032	      0.00000000	      5.00000014
      7.51700000	    -44.64415390	     -6.08293300	     -0.80475765	     -0.18794676	      1.10169915	     -0.01280456	     97.23770591	     -4.13062231	     -6.33593683	     95.65975698	      1.66957772	     11.63165770	     -0.75697071	      0.00000000	     98.72483848	     -3.17884889	     10.14543223	     59.80755507	      1.04383875	     12.42770104	     -7.25194686	      0.00000000	     -0.08033353	      0.60919839	      0.67490433	     -0.14918740	      0.81023386	      0.71708585	     -0.13197995	      1.48120496	      0.71708585	     -0.09181319	      1.48120496	      0.59054129	     -0.07459771	      1.24227736	      0.54835977	     -0.04590258	      0.94364831	      0.50617824	     -0.57381436	      6.89137402	      3.75361539	      0.00000000	      0.00000000	     -0.00000000	      0.00000000	      0.00000000	     59.18668074	    -15.74419995	     26.75846894	     47.47344376	     29.20042396	      0.00000000	      5.00000014	     64.97135350	     -5.13295047	     30.27509205	     33.07413859	     48.84303824	      0.00000000	      5.00000014
      7.52500000	    -44.66998039	     -6.42848534	     -1.02235641	     -0.18807737	      1.10140284	     -0.01316967	     98.98247152	     -4.21461392	     -6.52301685	     98.08903109	      1.71197655	     12.57687858	     -0.80227377	      0.00000000	     96.78225186	     -3.73838749	     10.18122765	     57.09815256	      0.99655076	     11.33257803	     -7.04115963	      0.00000000	     -0.07928064	      0.67744963	      0.72632361	     -0.14723207	      0.90100801	      0.77171883	     -0.13025016	      1.64715103	      0.77171883	     -0.09060984	      1.64715103	      0.63553315	     -0.07362000	      1.38145529	      0.59013793	     -0.04530096	      1.04936948	      0.54474270	     -0.56629365	      7.66344572	      4.03959400	      0.00000000	      0.00000000	     -0.00000000	      0.00000000	      0.00000000	     59.35047475	    -15.95005754	     26.97849806	     47.69534205	     29.24891512	      0.00000000	      5.00000014	     64.94665700	     -5.01212372	     30.19904134	     32.90074753	     48.82471000	      0.00000000	      5.00000014
      7.53300000	    -44.62836681	     -6.29721593	     -0.47046354	     -0.18805466	      1.10080186	     -0.01457509	    100.85176042	     -5.06958043	     -6.07994706	    100.67812634	      1.75716479	     13.99580905	     -0.41961866	      0.00000000	     94.69014253	     -3.50142249	      9.64629808	     54.43477247	      0.95006601	     10.03581646	     -7.33185614	      0.00000000	     -0.07894095	      0.68336180	      0.62319690	     -0.14660125	      0.90887120	      0.66214670	     -0.12969209	      1.66152589	      0.66214670	     -0.09022162	      1.66152589	      0.54529728	     -0.07330457	      1.39351139	      0.50634748	     -0.04510686	      1.05852743	      0.46739767	     -0.56386735	      7.73032540	      3.46603417	      0.00000000	      0.00000000	     -0.00000000	      0.00000000	      0.00000000	     59.47427409	    -16.13166431	     27.68812964	     47.98855771	     29.35102975	      0.00000000	      5.00000014	     64.97544239	     -4.96804731	     29.88689452	     32.47616086	     48.76391832	      0.00000000	      5.00000014
